<svg width="160" height="100" viewBox="0 0 160 100" fill="none" xmlns="http://www.w3.org/2000/svg">
  <path d="M18 58C34 40 51 30 70 32C82 33 92 39 102 49C112 37 124 30 138 28C143 27 147 27 152 28C141 32 132 39 126 49C121 57 119 65 120 72C107 63 95 58 82 58C59 57 38 71 18 58Z" fill="#FFFFFF" fill-opacity="0.78"/>
  <path d="M18 58C34 40 51 30 70 32C82 33 92 39 102 49C112 37 124 30 138 28C143 27 147 27 152 28" stroke="#C7D5F1" stroke-width="4" stroke-linecap="round" stroke-linejoin="round"/>
</svg>
